<svg xmlns="http://www.w3.org/2000/svg" version="1.1" xmlns:xlink="http://www.w3.org/1999/xlink" xmlns:svgjs="http://svgjs.com/svgjs" width="1000" height="1000"><rect width="1000" height="1000" rx="500" ry="500" fill="#ffffff"></rect><g transform="matrix(3,0,0,3,195.07600021362305,204.0919952392578)"><svg xmlns="http://www.w3.org/2000/svg" version="1.1" xmlns:xlink="http://www.w3.org/1999/xlink" xmlns:svgjs="http://svgjs.com/svgjs" width="200" height="200"><svg viewBox="0 0 200 200" xmlns="http://www.w3.org/2000/svg">
    <path d="M 167.919 98.112 A 65.282 65.282 0 0 1 102.637 163.394 A 65.282 65.282 0 0 1 37.355 98.112 A 65.282 65.282 0 0 1 102.637 32.83 A 65.282 65.282 0 0 1 167.919 98.112 Z" style="stroke: #84cc16; fill: none; stroke-width: 2px;"></path>
    <path d="M 70.361 51.331 A 14.642 14.642 0 0 1 55.719 65.973 A 14.642 14.642 0 0 1 41.077 51.331 A 14.642 14.642 0 0 1 55.719 36.689 A 14.642 14.642 0 0 1 70.361 51.331 Z" style="stroke: #84cc16; stroke-width: 2px;" fill="currentColor"></path>
    <path d="M 51.731 98.003 A 14.642 14.642 0 0 1 37.089 112.645 A 14.642 14.642 0 0 1 22.447 98.003 A 14.642 14.642 0 0 1 37.089 83.361 A 14.642 14.642 0 0 1 51.731 98.003 Z" style="stroke: #84cc16; stroke-width: 2px;" fill="currentColor"></path>
    <path d="M 70.377 144.673 A 14.642 14.642 0 0 1 55.735 159.315 A 14.642 14.642 0 0 1 41.093 144.673 A 14.642 14.642 0 0 1 55.735 130.031 A 14.642 14.642 0 0 1 70.377 144.673 Z" style="stroke: #84cc16; stroke-width: 2px;" fill="currentColor"></path>
    <path d="M 116.945 162.584 A 14.642 14.642 0 0 1 102.303 177.226 A 14.642 14.642 0 0 1 87.661 162.584 A 14.642 14.642 0 0 1 102.303 147.942 A 14.642 14.642 0 0 1 116.945 162.584 Z" style="stroke: #84cc16; stroke-width: 15px;" fill="currentColor"></path>
    <path d="M 164.128 144.696 A 14.642 14.642 0 0 1 149.486 159.338 A 14.642 14.642 0 0 1 134.844 144.696 A 14.642 14.642 0 0 1 149.486 130.054 A 14.642 14.642 0 0 1 164.128 144.696 Z" style="stroke: #84cc16; stroke-width: 15px;" fill="currentColor"></path>
    <path d="M 182.477 98.084 A 14.642 14.642 0 0 1 167.835 112.726 A 14.642 14.642 0 0 1 153.193 98.084 A 14.642 14.642 0 0 1 167.835 83.442 A 14.642 14.642 0 0 1 182.477 98.084 Z" style="stroke: #84cc16; stroke-width: 15px;" fill="currentColor"></path>
    <path d="M 163.71 51.059 A 14.642 14.642 0 0 1 149.068 65.701 A 14.642 14.642 0 0 1 134.426 51.059 A 14.642 14.642 0 0 1 149.068 36.417 A 14.642 14.642 0 0 1 163.71 51.059 Z" style="stroke: #84cc16; stroke-width: 15px;" fill="currentColor"></path>
    <path d="M 117.176 33.324 A 14.642 14.642 0 0 1 102.534 47.966 A 14.642 14.642 0 0 1 87.892 33.324 A 14.642 14.642 0 0 1 102.534 18.682 A 14.642 14.642 0 0 1 117.176 33.324 Z" style="stroke: #84cc16; stroke-width: 2px;" fill="currentColor"></path>
</svg></svg></g></svg>